<svg xmlns="http://www.w3.org/2000/svg" viewBox="0 0 512 512" style="enable-background:new 0 0 512 512" xml:space="preserve"><path style="fill:#474545" d="M64 32h384v480H64z"/><path style="fill:#dfe3e6" d="M96 392h320v88H96z"/><path style="fill:#fff" d="M416 64v328l-64 64H96V64z"/><path style="fill:#cfd3d6" d="m416 392-64 64v-64zM184 32h144v64H184z"/><circle style="fill:#cfd3d6" cx="256" cy="32" r="32"/><circle style="fill:#fff" cx="256" cy="32" r="16"/><path style="fill:#eff4f7" d="M184 32h144v32H184z"/><path style="fill:#cfd3d6" d="M136 360h240v16H136zM136 328h240v16H136zM136 392h152v16H136z"/><path style="fill:#f4608a" d="M347.216 266.952a31.947 31.947 0 0 0-12.904-11.8L288 232h-64l-46.312 23.16a31.785 31.785 0 0 0-12.904 11.8c-3.256 5.24-4.784 11.064-4.784 16.816V312h192v-28.224a31.793 31.793 0 0 0-4.784-16.824z"/><path style="fill:#cfd3d6" d="M284.688 228.688a15.995 15.995 0 0 1-3.472-5.184 16.123 16.123 0 0 1-1.216-6.128V200h-48v17.376c0 2.04-.392 4.12-1.216 6.128a15.91 15.91 0 0 1-3.472 5.184L224 232c0 17.672 14.328 32 32 32s32-14.328 32-32l-3.312-3.312z"/><path style="fill:#dfe3e6" d="M284.28 123.72C276.48 115.904 266.232 112 256 112s-20.48 3.904-28.28 11.72C219.904 131.528 216 141.768 216 152v16h.016c0 21.408 13.32 48 39.984 48 26.656 0 39.984-26.592 39.984-48H296v-16c0-10.232-3.904-20.472-11.72-28.28z"/></svg>