<svg height="512" viewBox="0 0 64 64" width="512" xmlns="http://www.w3.org/2000/svg" xmlns:xlink="http://www.w3.org/1999/xlink"><linearGradient id="New_Gradient_Swatch" gradientUnits="userSpaceOnUse" x1="18" x2="18" y1="64.067" y2="-.004"><stop offset="0" stop-color="#e93e3a"/><stop offset=".35" stop-color="#ed683c"/><stop offset=".7" stop-color="#f3903f"/><stop offset="1" stop-color="#fdc70c"/></linearGradient><linearGradient id="New_Gradient_Swatch-2" x1="33" x2="33" xlink:href="#New_Gradient_Swatch" y1="64.067" y2="-.004"/><linearGradient id="New_Gradient_Swatch-3" x1="23" x2="23" xlink:href="#New_Gradient_Swatch" y1="64.067" y2="-.004"/><linearGradient id="New_Gradient_Swatch-4" x1="38" x2="38" xlink:href="#New_Gradient_Swatch" y1="64.067" y2="-.004"/><linearGradient id="New_Gradient_Swatch-5" x1="20" x2="20" xlink:href="#New_Gradient_Swatch" y1="64.067" y2="-.004"/><linearGradient id="New_Gradient_Swatch-6" x1="31" x2="31" xlink:href="#New_Gradient_Swatch" y1="64.067" y2="-.004"/><linearGradient id="New_Gradient_Swatch-7" x1="40" x2="40" xlink:href="#New_Gradient_Swatch" y1="64.067" y2="-.004"/><linearGradient id="New_Gradient_Swatch-8" x1="29" x2="29" xlink:href="#New_Gradient_Swatch" y1="64.067" y2="-.004"/><linearGradient id="New_Gradient_Swatch-10" x1="32" x2="32" xlink:href="#New_Gradient_Swatch" y1="64.067" y2="-.004"/><g id="Resume-2" data-name="Resume"><path d="m15 38h6v2h-6z" fill="url(#New_Gradient_Swatch)"/><path d="m23 38h20v2h-20z" fill="url(#New_Gradient_Swatch-2)"/><path d="m15 42h16v2h-16z" fill="url(#New_Gradient_Swatch-3)"/><path d="m33 42h10v2h-10z" fill="url(#New_Gradient_Swatch-4)"/><path d="m15 46h10v2h-10z" fill="url(#New_Gradient_Swatch-5)"/><path d="m27 46h8v2h-8z" fill="url(#New_Gradient_Swatch-6)"/><path d="m37 46h6v2h-6z" fill="url(#New_Gradient_Swatch-7)"/><path d="m15 50h28v2h-28z" fill="url(#New_Gradient_Swatch-8)"/><path d="m15 54h28v2h-28z" fill="url(#New_Gradient_Swatch-8)"/><path d="m52 2h-34a3 3 0 0 0 -3 3v3h-3a3 3 0 0 0 -3 3v48a3 3 0 0 0 3 3h34a3 3 0 0 0 3-3v-3h3a3 3 0 0 0 3-3v-48a3 3 0 0 0 -3-3zm-5 57a1 1 0 0 1 -1 1h-34a1 1 0 0 1 -1-1v-48a1 1 0 0 1 1-1h27v7a1 1 0 0 0 1.9.447l1.1-2.211 1.1 2.211a1 1 0 0 0 1.9-.447v-7h1a1 1 0 0 1 1 1zm-6-49h2v2.764l-.1-.211a1.042 1.042 0 0 0 -1.79 0l-.1.211zm12 43a1 1 0 0 1 -1 1h-3v-43a3 3 0 0 0 -3-3h-29v-3a1 1 0 0 1 1-1h34a1 1 0 0 1 1 1z" fill="url(#New_Gradient_Swatch-10)"/><path d="m21 36h16a1 1 0 0 0 1-1v-1a7.011 7.011 0 0 0 -6-6.929v-1.1a4.977 4.977 0 0 0 2-3.971v-1a1 1 0 0 0 1-1v-2a6 6 0 0 0 -12 0v2a1 1 0 0 0 1 1v1a4.977 4.977 0 0 0 2 3.974v1.1a7.011 7.011 0 0 0 -6 6.926v1a1 1 0 0 0 1 1zm4-18a4 4 0 0 1 8 0v1h-.171a1 1 0 0 1 -.708-.293l-1.414-1.414a1 1 0 0 0 -1.414 0l-.829.829a3.02 3.02 0 0 1 -2.121.878h-1.343zm1.343 3a4.966 4.966 0 0 0 3.535-1.464l.122-.122.707.707a2.96 2.96 0 0 0 1.293.749v1.13a3 3 0 0 1 -6 0v-1zm2.657 6a5 5 0 0 0 1-.1v.687l-1 1-1-1v-.687a5 5 0 0 0 1 .1zm-2.376 2.038 1.669 1.669a1 1 0 0 0 1.414 0l1.669-1.669a4.991 4.991 0 0 1 4.624 4.962h-14a4.991 4.991 0 0 1 4.624-4.962z" fill="url(#New_Gradient_Swatch-8)"/></g></svg>